<?xml version="1.0" encoding="iso-8859-1"?>
<!-- Generator: Adobe Illustrator 18.0.0, SVG Export Plug-In . SVG Version: 6.00 Build 0)  -->
<!DOCTYPE svg PUBLIC "-//W3C//DTD SVG 1.1//EN" "http://www.w3.org/Graphics/SVG/1.1/DTD/svg11.dtd">
<svg version="1.1" id="Capa_1" xmlns="http://www.w3.org/2000/svg" xmlns:xlink="http://www.w3.org/1999/xlink" x="0px" y="0px"
	 viewBox="0 0 493.796 493.796" style="enable-background:new 0 0 493.796 493.796;" xml:space="preserve">
<path d="M458.974,212.076h-24.583c-4.945-26.768-15.387-51.588-30.243-73.18l17.338-17.34c13.603-13.593,13.603-35.643,0-49.234
	c-13.598-13.602-35.667-13.602-49.231,0l-17.344,17.34c-21.607-14.875-46.43-25.322-73.204-30.261V34.816
	C281.707,15.589,266.12,0,246.889,0c-19.229,0-34.816,15.589-34.816,34.816V59.4c-26.775,4.939-51.598,15.386-73.204,30.253
	l-17.311-17.324c-13.597-13.6-35.667-13.6-49.231,0c-13.603,13.592-13.603,35.643,0,49.235l17.305,17.324
	c-14.856,21.6-25.297,46.42-30.227,73.188H34.822c-19.245,0-34.816,15.59-34.816,34.818s15.571,34.816,34.816,34.816h24.583
	c4.93,26.776,15.37,51.598,30.26,73.198l-17.338,17.34c-13.603,13.592-13.603,35.642,0,49.234
	c6.782,6.801,15.707,10.201,24.615,10.201c8.909,0,17.818-3.4,24.616-10.201l17.343-17.34
	c21.591,14.867,46.414,25.315,73.172,30.252v24.584c0,19.228,15.588,34.817,34.816,34.817c19.23,0,34.817-15.59,34.817-34.817
	v-24.584c26.759-4.938,51.581-15.385,73.188-30.252l17.36,17.349c6.781,6.8,15.707,10.2,24.615,10.2s17.817-3.4,24.616-10.2
	c13.603-13.592,13.603-35.642,0-49.235l-17.354-17.348c14.617-21.243,24.905-45.631,29.954-71.905l0.627-1.293h24.262
	c19.229,0,34.816-15.588,34.816-34.816S478.204,212.076,458.974,212.076z M246.889,377.425
	c-71.982,0-130.532-58.559-130.532-130.531c0-71.974,58.55-130.533,130.532-130.533c68.958,0,125.452,53.791,130.075,121.598
	l43.365-18.131c1.194-0.501,2.585-0.205,3.506,0.747c0.884,0.953,1.085,2.363,0.507,3.537
	c-21.012,42.536-6.357,12.904-61.068,123.57c-0.61,1.232-1.869,2.023-3.244,2.023c-0.697,0-1.341-0.195-1.919-0.552
	c-0.562-0.349-1.024-0.858-1.33-1.471c-11.067-22.382-46.833-94.721-61.101-123.57c-0.578-1.173-0.371-2.584,0.528-3.537
	c0.899-0.959,2.296-1.258,3.484-0.747l42.433,17.731c-4.721-48.418-45.628-86.381-95.236-86.381
	c-52.77,0-95.715,42.935-95.715,95.715c0,52.778,42.945,95.714,95.715,95.714c22.064,0,42.352-7.583,58.55-20.172l15.675,31.698
	C300.014,368.781,274.466,377.425,246.889,377.425z"/>
<g>
</g>
<g>
</g>
<g>
</g>
<g>
</g>
<g>
</g>
<g>
</g>
<g>
</g>
<g>
</g>
<g>
</g>
<g>
</g>
<g>
</g>
<g>
</g>
<g>
</g>
<g>
</g>
<g>
</g>
</svg>
